<svg width="20" height="12" viewBox="0 0 20 12" fill="none" xmlns="http://www.w3.org/2000/svg">
<path d="M12.8594 0.897265H17.5352V2.03164H12.8594V0.897265ZM8.17422 5.38555C9.20781 4.89102 9.74922 4.13867 9.74922 2.97617C9.74922 0.676953 8.03828 0.119141 6.0625 0.119141H0.625V11.6598H6.21484C8.31016 11.6598 10.2766 10.652 10.2766 8.3082C10.2766 6.85977 9.59219 5.78867 8.17422 5.38555ZM3.16094 2.08789H5.53984C6.45625 2.08789 7.27891 2.34336 7.27891 3.40742C7.27891 4.38711 6.63906 4.78086 5.73203 4.78086H3.16094V2.08789ZM5.86797 9.70039H3.15859V6.52227H5.92188C7.0375 6.52227 7.74297 6.98867 7.74297 8.16992C7.74297 9.33242 6.90156 9.70039 5.86797 9.70039ZM19.3633 7.60273C19.3633 5.13008 17.9172 3.06992 15.3016 3.06992C12.7586 3.06992 11.0289 4.98477 11.0289 7.49492C11.0289 10.0965 12.6672 11.8824 15.3016 11.8824C17.2961 11.8824 18.5875 10.9848 19.2086 9.06992H17.1859C16.9656 9.78477 16.0703 10.1598 15.3742 10.1598C14.0289 10.1598 13.3258 9.37226 13.3258 8.03398H19.3469C19.3539 7.8957 19.3633 7.75039 19.3633 7.60273ZM13.3258 6.58555C13.3984 5.48633 14.132 4.79961 15.2289 4.79961C16.382 4.79961 16.9586 5.47695 17.0594 6.58555H13.3258Z" fill="#0057FE"/>
</svg>
