<svg width="24" height="24" viewBox="0 0 24 24" fill="none" xmlns="http://www.w3.org/2000/svg">
<path d="M11.9994 17.1576C12.3309 17.1576 12.7905 15.8996 12.7905 13.8655V9.11942C14.0636 8.77288 14.9902 7.60519 14.9902 6.22656C14.9902 4.5692 13.6643 3.2207 11.9994 3.2207C10.3421 3.2207 9.01618 4.5692 9.01618 6.22656C9.01618 7.59766 9.93527 8.76535 11.2084 9.11189V13.8655C11.2084 15.892 11.6755 17.1576 11.9994 17.1576ZM11.1557 6.3923C10.6133 6.3923 10.1311 5.91769 10.1311 5.36021C10.1311 4.81027 10.6133 4.34319 11.1557 4.34319C11.7207 4.34319 12.1802 4.81027 12.1802 5.36021C12.1802 5.91769 11.7207 6.3923 11.1557 6.3923ZM11.9994 20.1258C16.7907 20.1258 19.661 18.5137 19.661 16.6604C19.661 14.6339 16.5572 13.3231 14.0787 13.2176V14.5661C15.7662 14.6415 17.9434 15.4174 17.9434 16.5098C17.9434 17.8055 15.4422 18.702 11.9994 18.702C8.55664 18.702 6.06306 17.8131 6.06306 16.5098C6.06306 15.4174 8.24023 14.6415 9.9202 14.5661V13.2176C7.44169 13.3231 4.33789 14.6339 4.33789 16.6604C4.33789 18.5137 7.20815 20.1258 11.9994 20.1258Z" fill="#EBEBF5" fill-opacity="0.6"/>
</svg>
