<svg width="976" height="898" viewBox="0 0 976 898" fill="none" xmlns="http://www.w3.org/2000/svg">
<g opacity="0.45">
<path d="M809.39 468.737C799.516 450.509 784.705 435.318 764.577 423.545C744.829 411.393 720.145 402.278 690.523 395.822L613.43 379.492C593.303 375.315 577.732 370.378 566.339 365.061C554.946 359.365 546.971 352.909 542.034 345.693C537.477 338.098 534.819 328.983 534.819 318.35C534.819 304.678 538.236 293.285 545.452 283.791C552.668 274.297 562.921 267.081 576.593 262.144C590.264 257.207 606.215 254.549 625.203 254.549C645.71 254.549 663.18 257.587 677.611 263.284C692.042 268.98 703.435 277.715 711.41 288.728C719.385 300.121 724.322 313.793 725.841 330.123H806.731C804.453 299.741 796.098 273.917 781.287 252.65C766.856 231.383 746.349 215.433 720.145 204.8C693.941 193.786 663.18 188.47 626.722 188.47C588.745 188.47 556.465 194.166 530.261 205.559C504.057 216.952 484.689 232.902 471.777 253.41C471.398 253.79 471.398 254.169 471.018 254.549C459.245 234.421 441.396 218.471 418.61 207.838C394.685 196.445 365.443 190.748 331.643 190.748C299.363 190.748 271.261 196.065 247.335 206.699C223.41 217.332 204.801 232.143 191.889 251.131C178.977 270.12 172.521 291.766 172.521 316.451C172.521 332.781 175.559 347.592 181.636 361.264C187.712 374.935 197.206 386.708 210.498 396.962C220.752 404.937 232.904 411.393 246.955 415.95C228.727 419.368 212.397 425.444 199.105 433.419C182.395 443.673 169.863 456.585 161.888 472.915C153.533 489.245 149.355 507.853 149.355 529.12C149.355 557.983 156.571 583.427 171.382 605.453C186.193 627.48 207.08 644.949 234.043 657.102C261.007 669.254 292.907 675.331 328.985 675.331C366.202 675.331 398.482 668.874 425.446 655.962C445.573 646.088 462.283 633.176 475.955 617.226C490.766 634.695 509.374 648.747 532.54 658.241C561.022 670.394 595.201 676.47 635.457 676.47C677.231 676.47 712.549 670.394 740.652 657.861C769.135 645.329 790.022 628.239 803.693 606.593C817.365 584.946 824.201 559.881 824.201 531.779C824.201 508.233 819.264 486.966 809.39 468.737ZM729.639 575.452C722.043 586.085 710.65 594.44 695.46 600.137C680.269 605.833 661.281 608.492 638.495 608.492C614.569 608.492 594.062 605.074 577.352 598.618C560.643 591.782 547.731 581.528 538.236 567.477C528.742 553.425 523.046 535.197 521.527 513.17H513.172H433.421C432.282 534.057 427.724 551.527 419.749 565.578C411.774 579.629 400.001 589.883 385.191 597.099C370.38 603.934 351.771 607.352 330.124 607.352C308.478 607.352 290.629 603.934 275.818 597.858C261.007 591.402 249.994 581.908 242.778 570.135C235.183 557.983 231.765 543.931 231.765 527.601C231.765 512.031 235.183 498.359 241.639 487.726C248.475 476.713 258.348 468.358 271.64 462.661C284.932 456.965 301.642 453.927 321.77 453.927H366.582V390.506H331.643C313.794 390.506 298.983 387.847 286.831 382.91C274.678 377.593 265.944 370.378 259.868 360.504C253.791 350.63 251.133 338.857 251.133 324.806C251.133 309.995 254.171 297.842 260.627 287.589C266.703 277.715 276.198 270.12 288.35 264.803C300.503 259.486 315.693 257.207 333.542 257.207C351.771 257.207 366.582 259.866 378.355 265.562C390.127 270.879 399.242 279.614 405.318 291.766C411.394 303.539 415.192 319.109 416.331 338.478H452.789C454.308 357.086 459.625 373.036 468.359 386.708C479.373 403.418 494.184 416.709 513.172 426.583C532.16 436.457 555.326 444.432 581.91 450.129L656.344 466.079C676.471 470.257 692.422 475.573 704.574 481.65C716.727 487.726 725.841 495.321 731.158 504.436C736.854 513.17 739.513 524.183 739.513 536.716C741.032 551.906 737.234 564.818 729.639 575.452Z" fill="#747480" fill-opacity="0.08"/>
<path opacity="0.7" d="M862.301 188.038C874.793 188.038 885.319 192.202 893.879 200.53C902.322 208.858 906.544 219.037 906.544 231.067C906.544 242.981 902.322 253.102 893.879 261.43C885.319 269.759 874.793 273.923 862.301 273.923C849.924 273.923 839.456 269.759 830.896 261.43C822.336 253.102 818.057 242.981 818.057 231.067C818.057 219.037 822.336 208.858 830.896 200.53C839.456 192.202 849.924 188.038 862.301 188.038ZM862.301 264.554C872.248 264.554 880.461 261.373 886.938 255.011C893.416 248.533 896.655 240.552 896.655 231.067C896.655 221.466 893.416 213.427 886.938 206.95C880.229 200.472 872.017 197.233 862.301 197.233C852.7 197.233 844.545 200.472 837.836 206.95C831.243 213.312 827.946 221.351 827.946 231.067C827.946 240.552 831.243 248.475 837.836 254.837C844.545 261.315 852.7 264.554 862.301 264.554ZM880.172 240.61L880.692 246.683C880.923 249.459 881.56 251.483 882.601 252.755H872.017C871.207 251.598 870.687 249.574 870.455 246.683L870.108 241.998C869.877 239.8 869.356 238.296 868.547 237.487C867.853 236.677 866.523 236.272 864.556 236.272H855.187V252.755H845.124V208.338H865.25C870.224 208.338 874.099 209.495 876.875 211.808C879.767 214.006 881.213 217.129 881.213 221.177C881.213 226.151 879.131 229.563 874.966 231.414C878.321 233.033 880.056 236.099 880.172 240.61ZM855.187 217.013V227.944H864.73C868.778 227.944 870.802 226.093 870.802 222.392C870.802 218.806 868.662 217.013 864.383 217.013H855.187Z" fill="#747480" fill-opacity="0.08"/>
</g>
</svg>
