<svg width="14" height="14" viewBox="0 0 14 14" fill="none" xmlns="http://www.w3.org/2000/svg">
<path d="M13.2567 0.999819C13.0853 0.82839 12.9138 0.742676 12.6567 0.742676C12.4853 0.742676 12.3138 0.742676 12.2281 0.82839C12.1424 0.914105 11.971 0.999819 11.8853 1.17125L5.62812 11.1141L2.54241 6.99982C2.4567 6.82839 2.28527 6.74268 2.19955 6.65696C2.02812 6.57125 1.94241 6.57125 1.77098 6.57125C1.51384 6.57125 1.2567 6.65696 1.08527 6.82839C0.913839 6.99982 0.828125 7.25696 0.828125 7.42839C0.828125 7.68553 0.913839 7.85696 1.08527 8.1141L4.77098 12.8284C4.8567 12.9998 5.02812 13.0855 5.19955 13.1712C5.37098 13.257 5.54241 13.3427 5.71384 13.3427C6.0567 13.3427 6.39955 13.1712 6.57098 12.8284L13.2567 2.19982C13.4281 1.94268 13.4281 1.77125 13.4281 1.59982C13.5138 1.42839 13.4281 1.17125 13.2567 0.999819Z" fill="#3C3C43" fill-opacity="0.3"/>
</svg>
