<svg width="10" height="10" viewBox="0 0 10 10" fill="none" xmlns="http://www.w3.org/2000/svg">
<path d="M8.624 8.433C7.77333 9.269 6.70633 9.687 5.423 9.687C4.13967 9.687 3.07267 9.269 2.222 8.433C1.37867 7.61167 0.957 6.55567 0.957 5.265C0.957 3.97433 1.37867 2.91833 2.222 2.097C3.07267 1.26833 4.13967 0.854 5.423 0.854C6.70633 0.854 7.77333 1.26833 8.624 2.097C9.46 2.92567 9.878 3.98167 9.878 5.265C9.878 6.54833 9.46 7.60433 8.624 8.433ZM2.849 7.894C3.51633 8.58333 4.37433 8.928 5.423 8.928C6.47167 8.928 7.32967 8.58333 7.997 7.894C8.66433 7.21933 8.998 6.343 8.998 5.265C8.998 4.20167 8.66433 3.32533 7.997 2.636C7.32967 1.954 6.47167 1.613 5.423 1.613C4.37433 1.613 3.51633 1.954 2.849 2.636C2.17433 3.33267 1.837 4.209 1.837 5.265C1.837 6.321 2.17433 7.19733 2.849 7.894ZM5.423 7.454C4.829 7.454 4.35233 7.25967 3.993 6.871C3.641 6.475 3.465 5.936 3.465 5.254C3.465 4.572 3.641 4.03667 3.993 3.648C4.345 3.252 4.82167 3.054 5.423 3.054C6.40567 3.054 7.00333 3.49033 7.216 4.363L6.413 4.506C6.259 4.05133 5.929 3.824 5.423 3.824C4.68967 3.824 4.323 4.30067 4.323 5.254C4.323 6.20733 4.68967 6.684 5.423 6.684C5.951 6.684 6.28467 6.44933 6.424 5.98L7.216 6.112C7.00333 7.00667 6.40567 7.454 5.423 7.454Z" fill="#3C3C43" fill-opacity="0.6"/>
</svg>
