<svg width="18" height="18" viewBox="0 0 18 18" fill="none" xmlns="http://www.w3.org/2000/svg">
<path d="M3.30887 13.4937C2.49526 13.4937 1.88002 13.2878 1.46317 12.876C1.04632 12.4642 0.837891 11.8539 0.837891 11.0453V3.36873C0.837891 2.56014 1.04632 1.94993 1.46317 1.53809C1.88002 1.12626 2.49526 0.920349 3.30887 0.920349H10.9403C11.7539 0.920349 12.3691 1.12878 12.786 1.54563C13.2028 1.95746 13.4113 2.56516 13.4113 3.36873V5.1391H11.9272V3.4968C11.9272 3.13017 11.8343 2.85645 11.6484 2.67565C11.4626 2.48982 11.1964 2.39691 10.8499 2.39691H3.39927C3.04771 2.39691 2.77902 2.48982 2.59319 2.67565C2.41239 2.85645 2.32199 3.13017 2.32199 3.4968V10.9173C2.32199 11.2839 2.41239 11.5601 2.59319 11.746C2.77902 11.9268 3.04771 12.0172 3.39927 12.0172H5.32031V13.4937H3.30887ZM7.06055 17.0797C6.24693 17.0797 5.6317 16.8738 5.21484 16.4619C4.79799 16.0501 4.58956 15.4399 4.58956 14.6313V6.94713C4.58956 6.14356 4.79799 5.53586 5.21484 5.12403C5.6317 4.70718 6.24693 4.49875 7.06055 4.49875H14.692C15.5056 4.49875 16.1208 4.70718 16.5377 5.12403C16.9545 5.54088 17.1629 6.14859 17.1629 6.94713V14.6313C17.1629 15.4349 16.9545 16.0426 16.5377 16.4544C16.1208 16.8712 15.5056 17.0797 14.692 17.0797H7.06055ZM7.15095 15.6031H14.6016C14.9481 15.6031 15.2143 15.5102 15.4001 15.3244C15.5859 15.1436 15.6789 14.8698 15.6789 14.5032V7.08274C15.6789 6.71611 15.5859 6.44239 15.4001 6.26159C15.2143 6.07576 14.9481 5.98285 14.6016 5.98285H7.15095C6.79939 5.98285 6.53069 6.07576 6.34487 6.26159C6.15904 6.44239 6.06613 6.71611 6.06613 7.08274V14.5032C6.06613 14.8698 6.15904 15.1436 6.34487 15.3244C6.53069 15.5102 6.79939 15.6031 7.15095 15.6031Z" fill="#EBEBF5" fill-opacity="0.3"/>
</svg>
