<svg width="18" height="18" viewBox="0 0 18 18" fill="none" xmlns="http://www.w3.org/2000/svg">
<path fill-rule="evenodd" clip-rule="evenodd" d="M1.98668 8.91527C1.98634 8.94352 1.98618 8.97181 1.98618 9.00014C1.98618 10.7394 2.61932 12.3308 3.66771 13.5564C5.44156 11.4882 7.49349 10.0053 9.79558 9.21744C9.67384 8.92112 9.54858 8.63176 9.41895 8.34719C9.32584 8.1428 9.23033 7.94056 9.13207 7.73968C7.06574 8.38118 4.7055 8.71909 1.98668 8.91527ZM2.1844 7.33769C4.59168 7.15174 6.63097 6.84934 8.38928 6.33582C7.73256 5.18132 6.95516 4.00945 5.98811 2.66464C4.10661 3.56045 2.68711 5.26973 2.1844 7.33769ZM7.52955 2.14138C8.45921 3.45188 9.22656 4.63082 9.88644 5.8189C11.2452 5.26859 12.4198 4.54546 13.4635 3.59141C12.2507 2.58927 10.6953 1.98715 8.99916 1.98715C8.4951 1.98715 8.00347 2.04033 7.52955 2.14138ZM14.5482 4.71123C13.3763 5.79002 12.0718 6.5985 10.6063 7.20804C10.6848 7.37115 10.7617 7.5354 10.8372 7.70114C11.0018 8.06259 11.1593 8.43021 11.3112 8.80748C12.7872 8.51045 14.3549 8.48337 16.0078 8.75155C15.9549 7.23226 15.4187 5.83583 14.5482 4.71123ZM15.8897 10.3119C14.4752 10.0684 13.1324 10.0657 11.8629 10.29C12.305 11.5744 12.7103 12.9983 13.1269 14.6703C14.5393 13.6404 15.5522 12.0956 15.8897 10.3119ZM11.7182 15.4666C11.2569 13.5785 10.8213 12.0357 10.3474 10.6762C8.28319 11.3705 6.43384 12.7091 4.80659 14.6224C5.97606 15.4959 7.42722 16.0131 8.99916 16.0131C9.96332 16.0131 10.882 15.8186 11.7182 15.4666ZM0.427734 9.00014C0.427734 4.26627 4.26529 0.428711 8.99916 0.428711C13.733 0.428711 17.5706 4.26627 17.5706 9.00014C17.5706 13.734 13.733 17.5716 8.99916 17.5716C4.26529 17.5716 0.427734 13.734 0.427734 9.00014Z" fill="#EA4C89"/>
</svg>
