<svg width="14" height="11" viewBox="0 0 14 11" fill="none" xmlns="http://www.w3.org/2000/svg">
<path d="M13.5178 6.55899C13.3166 6.18332 13.0132 5.86895 12.6092 5.61432C12.2053 5.35968 11.6992 5.16792 11.0909 5.03745L9.41214 4.67593C9.06319 4.60206 8.78812 4.51561 8.58378 4.41815C8.38258 4.31756 8.23798 4.19967 8.15153 4.06606C8.06665 3.93246 8.02421 3.77213 8.02421 3.58665C8.02421 3.34459 8.09022 3.14025 8.22226 2.97364C8.35429 2.80545 8.54134 2.67971 8.78498 2.59483C9.03018 2.50838 9.32411 2.46436 9.66677 2.46436C10.0393 2.46436 10.3568 2.51623 10.6162 2.6184C10.8755 2.719 11.0783 2.8699 11.2229 3.07109C11.3706 3.27071 11.4602 3.51749 11.4917 3.81143H13.4533C13.4109 3.17955 13.2395 2.6467 12.9378 2.21287C12.636 1.77905 12.2131 1.45368 11.6709 1.23362C11.1239 1.01199 10.47 0.900391 9.70607 0.900391C8.89029 0.900391 8.20811 1.01985 7.65797 1.25877C7.20371 1.45682 6.84533 1.71932 6.58126 2.04626C6.33134 1.73975 6.01383 1.49454 5.62873 1.31378C5.1226 1.07801 4.50802 0.96012 3.78497 0.96012C3.09494 0.96012 2.49764 1.07015 1.99466 1.29178C1.4901 1.51026 1.10343 1.8152 0.837787 2.20344C0.572147 2.59168 0.438541 3.03651 0.438541 3.53478C0.438541 3.87744 0.50613 4.19181 0.639736 4.47945C0.773342 4.76553 0.980824 5.01231 1.26061 5.21979C1.46495 5.37068 1.70701 5.49014 1.9868 5.57817C1.62999 5.64575 1.31877 5.75893 1.04998 5.92083C0.704181 6.12674 0.441685 6.39709 0.26564 6.73189C0.0880226 7.06669 0 7.45179 0 7.88562C0 8.47505 0.150896 8.99847 0.452688 9.45431C0.75448 9.90857 1.18831 10.2622 1.75259 10.5169C2.31845 10.7715 2.98334 10.8988 3.74725 10.8988C4.53631 10.8988 5.21377 10.7636 5.77806 10.4933C6.13015 10.3251 6.43351 10.1098 6.68501 9.85041C6.96479 10.1302 7.30274 10.355 7.70041 10.5247C8.29456 10.7746 9.00817 10.9004 9.84282 10.9004C10.7073 10.9004 11.4367 10.7746 12.0324 10.5216C12.6297 10.2685 13.0761 9.91642 13.3732 9.46216C13.6734 9.00633 13.8227 8.47662 13.8227 7.87304C13.8227 7.3732 13.7205 6.93466 13.5178 6.55899ZM11.5876 8.67782C11.4492 8.86801 11.2402 9.01419 10.9604 9.11636C10.6806 9.21696 10.3348 9.26726 9.92141 9.26726C9.47501 9.26726 9.0962 9.20753 8.78498 9.0865C8.4769 8.96389 8.2364 8.7737 8.0635 8.51592C7.89217 8.25971 7.78843 7.9312 7.75542 7.53038H7.59981V7.52881H5.73247C5.71204 7.9312 5.62716 8.26443 5.47784 8.53164C5.32537 8.79728 5.11003 8.9969 4.83024 9.12894C4.55046 9.26097 4.20622 9.32699 3.79755 9.32699C3.39987 9.32699 3.0635 9.26726 2.78843 9.14623C2.51336 9.0252 2.30588 8.85387 2.16441 8.63066C2.02295 8.40746 1.95379 8.14183 1.95379 7.83217C1.95379 7.53195 2.01981 7.28046 2.15184 7.07455C2.28387 6.86707 2.47878 6.70989 2.73813 6.60457C2.99591 6.49769 3.31342 6.44425 3.69381 6.44425H4.54574V5.02016H3.81169C3.47218 5.02016 3.18768 4.97144 2.95976 4.87556C2.73185 4.77653 2.56209 4.63507 2.45049 4.44959C2.33574 4.26254 2.27916 4.03463 2.27916 3.76899C2.27916 3.49234 2.33889 3.25814 2.45677 3.06795C2.57466 2.87776 2.75071 2.73472 2.98334 2.63884C3.21597 2.54296 3.50362 2.49423 3.8447 2.49423C4.18265 2.49423 4.46086 2.54453 4.68249 2.64513C4.90412 2.74572 5.07545 2.90762 5.19491 3.13082C5.31594 3.35245 5.38824 3.64481 5.41339 4.00948H6.03898C6.07199 4.40243 6.17573 4.74195 6.35335 5.02645C6.57183 5.3754 6.8752 5.65519 7.26187 5.86424C7.64854 6.07172 8.11537 6.23519 8.66237 6.35308L10.2986 6.70517C10.6555 6.78376 10.9431 6.87807 11.16 6.98967C11.3785 7.0997 11.5388 7.23488 11.6394 7.3952C11.7416 7.55553 11.7935 7.75201 11.7935 7.9815C11.795 8.255 11.7259 8.48606 11.5876 8.67782Z" fill="#3C3C43" fill-opacity="0.6"/>
</svg>
