<svg width="170" height="123" viewBox="0 0 170 123" fill="none" xmlns="http://www.w3.org/2000/svg">
<path id="Vector" d="M165.346 70.9344C162.878 66.3772 159.175 62.5795 154.143 59.6363C149.206 56.5982 143.035 54.3196 135.63 52.7056L116.357 48.6231C111.325 47.5787 107.432 46.3445 104.584 45.0153C101.736 43.5912 99.7418 41.9772 98.5075 40.1733C97.3682 38.2744 96.7037 35.9958 96.7037 33.3375C96.7037 29.9196 97.5581 27.0713 99.362 24.6978C101.166 22.3242 103.729 20.5203 107.147 19.2861C110.565 18.0519 114.553 17.3873 119.3 17.3873C124.427 17.3873 128.794 18.1468 132.402 19.5709C136.009 20.9951 138.858 23.1787 140.852 25.932C142.845 28.7803 144.08 32.1982 144.459 36.2807H164.682C164.112 28.6853 162.023 22.2293 158.321 16.9126C154.713 11.5958 149.586 7.60829 143.035 4.94992C136.484 2.19661 128.794 0.867432 119.68 0.867432C110.185 0.867432 102.115 2.29156 95.5644 5.13981C89.0134 7.98805 84.1714 11.9756 80.9433 17.1025C80.8484 17.1974 80.8484 17.2923 80.7535 17.3873C77.8103 12.3554 73.348 8.36782 67.6515 5.70945C61.6702 2.8612 54.3597 1.43708 45.9099 1.43708C37.8398 1.43708 30.8142 2.76626 24.8328 5.42463C18.8515 8.083 14.1994 11.7857 10.9714 16.5328C7.74334 21.2799 6.12933 26.6916 6.12933 32.8628C6.12933 36.9453 6.88886 40.648 8.40793 44.0659C9.927 47.4838 12.3005 50.427 15.6235 52.9904C18.1869 54.9842 21.225 56.5982 24.7379 57.7375C20.1807 58.5919 16.0982 60.111 12.7752 62.1048C8.59781 64.6682 5.46474 67.8962 3.47096 71.9787C1.38225 76.0612 0.337891 80.7133 0.337891 86.0301C0.337891 93.2456 2.14178 99.6067 5.8445 105.113C9.54723 110.62 14.769 114.987 21.5099 118.025C28.2507 121.064 36.2258 122.583 45.2453 122.583C54.5496 122.583 62.6196 120.969 69.3605 117.741C74.3924 115.272 78.5698 112.044 81.9877 108.057C85.6904 112.424 90.3426 115.937 96.134 118.31C103.255 121.348 111.799 122.867 121.863 122.867C132.307 122.867 141.136 121.348 148.162 118.215C155.283 115.082 160.504 110.81 163.922 105.398C167.34 99.9865 169.049 93.7204 169.049 86.6947C169.049 80.8083 167.815 75.4916 165.346 70.9344ZM145.409 97.613C143.51 100.271 140.662 102.36 136.864 103.784C133.066 105.208 128.319 105.873 122.623 105.873C116.641 105.873 111.515 105.018 107.337 103.404C103.16 101.695 99.9317 99.132 97.5581 95.6192C95.1846 92.1063 93.7605 87.5491 93.3807 82.0425H91.292H71.3542C71.0694 87.2643 69.9301 91.6316 67.9363 95.1445C65.9426 98.6573 62.9994 101.221 59.2966 103.025C55.5939 104.734 50.9418 105.588 45.5301 105.588C40.1184 105.588 35.6562 104.734 31.9535 103.215C28.2507 101.601 25.4974 99.227 23.6935 96.2838C21.7947 93.2456 20.9402 89.7328 20.9402 85.6503C20.9402 81.7577 21.7947 78.3398 23.4087 75.6814C25.1177 72.9281 27.5861 70.8394 30.9091 69.4153C34.2321 67.9912 38.4095 67.2316 43.4414 67.2316H54.6445V51.3764H45.9099C41.4476 51.3764 37.7449 50.7118 34.7068 49.4775C31.6686 48.1484 29.485 46.3445 27.9659 43.876C26.4468 41.4075 25.7823 38.4643 25.7823 34.9515C25.7823 31.2488 26.5418 28.2106 28.1558 25.6472C29.6749 23.1787 32.0484 21.2799 35.0865 19.9507C38.1247 18.6215 41.9223 18.0519 46.3846 18.0519C50.9418 18.0519 54.6445 18.7165 57.5877 20.1406C60.5309 21.4698 62.8095 23.6534 64.3286 26.6916C65.8476 29.6347 66.797 33.5274 67.0819 38.3694H76.1963C76.576 43.0215 77.9052 47.0091 80.0889 50.427C82.8422 54.6044 86.5449 57.9274 91.292 60.3958C96.0391 62.8643 101.831 64.8581 108.476 66.2822L127.085 70.2698C132.117 71.3141 136.104 72.6433 139.143 74.1624C142.181 75.6814 144.459 77.5803 145.788 79.8589C147.213 82.0425 147.877 84.7958 147.877 87.9289C148.257 91.7266 147.308 94.9546 145.409 97.613Z" fill="black"/>
</svg>
