<svg width="170" height="123" viewBox="0 0 170 123" fill="none" xmlns="http://www.w3.org/2000/svg">
<path id="Vector" d="M165.346 70.9343C162.878 66.3771 159.175 62.5794 154.143 59.6362C149.206 56.5981 143.035 54.3195 135.63 52.7055L116.357 48.623C111.325 47.5787 107.432 46.3444 104.584 45.0152C101.736 43.5911 99.7418 41.9771 98.5075 40.1732C97.3682 38.2744 96.7037 35.9958 96.7037 33.3374C96.7037 29.9195 97.5581 27.0713 99.362 24.6977C101.166 22.3242 103.729 20.5203 107.147 19.286C110.565 18.0518 114.553 17.3872 119.3 17.3872C124.427 17.3872 128.794 18.1467 132.402 19.5709C136.009 20.995 138.858 23.1787 140.852 25.932C142.845 28.7802 144.08 32.1981 144.459 36.2806H164.682C164.112 28.6853 162.023 22.2292 158.321 16.9125C154.713 11.5958 149.586 7.60823 143.035 4.94986C136.484 2.19655 128.794 0.867371 119.68 0.867371C110.185 0.867371 102.115 2.2915 95.5644 5.13974C89.0134 7.98799 84.1714 11.9755 80.9433 17.1024C80.8484 17.1973 80.8484 17.2923 80.7535 17.3872C77.8103 12.3553 73.348 8.36776 67.6515 5.70939C61.6702 2.86114 54.3597 1.43702 45.9099 1.43702C37.8398 1.43702 30.8142 2.7662 24.8328 5.42457C18.8515 8.08293 14.1994 11.7857 10.9714 16.5327C7.74334 21.2798 6.12933 26.6915 6.12933 32.8627C6.12933 36.9452 6.88886 40.6479 8.40793 44.0658C9.927 47.4837 12.3005 50.4269 15.6235 52.9903C18.1869 54.9841 21.225 56.5981 24.7379 57.7374C20.1807 58.5919 16.0982 60.111 12.7752 62.1047C8.59781 64.6682 5.46474 67.8962 3.47096 71.9787C1.38225 76.0611 0.337891 80.7133 0.337891 86.03C0.337891 93.2456 2.14178 99.6067 5.8445 105.113C9.54723 110.62 14.769 114.987 21.5099 118.025C28.2507 121.063 36.2258 122.583 45.2453 122.583C54.5496 122.583 62.6196 120.969 69.3605 117.741C74.3924 115.272 78.5698 112.044 81.9877 108.056C85.6904 112.424 90.3426 115.937 96.134 118.31C103.255 121.348 111.799 122.867 121.863 122.867C132.307 122.867 141.136 121.348 148.162 118.215C155.283 115.082 160.504 110.81 163.922 105.398C167.34 99.9864 169.049 93.7203 169.049 86.6946C169.049 80.8082 167.815 75.4915 165.346 70.9343ZM145.409 97.6129C143.51 100.271 140.662 102.36 136.864 103.784C133.066 105.208 128.319 105.873 122.623 105.873C116.641 105.873 111.515 105.018 107.337 103.404C103.16 101.695 99.9317 99.132 97.5581 95.6191C95.1846 92.1063 93.7605 87.5491 93.3807 82.0425H91.292H71.3542C71.0694 87.2643 69.9301 91.6316 67.9363 95.1444C65.9426 98.6573 62.9994 101.221 59.2966 103.025C55.5939 104.734 50.9418 105.588 45.5301 105.588C40.1184 105.588 35.6562 104.734 31.9535 103.214C28.2507 101.6 25.4974 99.2269 23.6935 96.2837C21.7947 93.2456 20.9402 89.7327 20.9402 85.6503C20.9402 81.7576 21.7947 78.3397 23.4087 75.6814C25.1177 72.9281 27.5861 70.8394 30.9091 69.4152C34.2321 67.9911 38.4095 67.2316 43.4414 67.2316H54.6445V51.3763H45.9099C41.4476 51.3763 37.7449 50.7117 34.7068 49.4775C31.6686 48.1483 29.485 46.3444 27.9659 43.8759C26.4468 41.4074 25.7823 38.4643 25.7823 34.9514C25.7823 31.2487 26.5418 28.2106 28.1558 25.6471C29.6749 23.1787 32.0484 21.2798 35.0865 19.9506C38.1247 18.6215 41.9223 18.0518 46.3846 18.0518C50.9418 18.0518 54.6445 18.7164 57.5877 20.1405C60.5309 21.4697 62.8095 23.6534 64.3286 26.6915C65.8476 29.6347 66.797 33.5273 67.0819 38.3693H76.1963C76.576 43.0215 77.9052 47.009 80.0889 50.4269C82.8422 54.6043 86.5449 57.9273 91.292 60.3958C96.0391 62.8643 101.831 64.858 108.476 66.2822L127.085 70.2697C132.117 71.3141 136.104 72.6432 139.143 74.1623C142.181 75.6814 144.459 77.5802 145.788 79.8588C147.213 82.0425 147.877 84.7958 147.877 87.9289C148.257 91.7265 147.308 94.9545 145.409 97.6129Z" fill="#EFEFF4"/>
</svg>
