<svg width="18" height="28" viewBox="0 0 18 28" fill="none" xmlns="http://www.w3.org/2000/svg">
<path d="M0 28V0H17.5V28L8.75 22.96L0 28Z" fill="#470137"/>
<path d="M3.61094 19L5.79707 15.6941L5.57969 16.4242V16.01L3.63145 13.0814H4.73066L6.19492 15.3742H6.61738L6.01445 15.7146L7.69609 13.0814H8.73789L6.73223 16.0387V16.457L6.51074 15.727L8.70098 19H7.62226L6.1498 16.7441H5.72324L6.33437 16.4078L4.63223 19H3.61094ZM11.043 19.0738C10.6711 19.0738 10.3457 18.9809 10.0668 18.7949C9.79062 18.6063 9.57598 18.3396 9.42285 17.9951C9.27246 17.6506 9.19726 17.2445 9.19726 16.777V16.7688C9.19726 16.2984 9.27246 15.891 9.42285 15.5465C9.57324 15.202 9.78652 14.9367 10.0627 14.7508C10.3389 14.5621 10.6656 14.4678 11.043 14.4678C11.248 14.4678 11.4395 14.5006 11.6172 14.5662C11.7949 14.6291 11.9521 14.7193 12.0889 14.8369C12.2256 14.9518 12.3336 15.0898 12.4129 15.2512H12.4785V12.7984H13.3727V19H12.4785V18.2986H12.4129C12.3254 18.46 12.2146 18.5994 12.0807 18.717C11.9467 18.8318 11.7922 18.9207 11.6172 18.9836C11.4422 19.0437 11.2508 19.0738 11.043 19.0738ZM11.2973 18.3109C11.5434 18.3109 11.7566 18.2494 11.9371 18.1264C12.1176 18.0033 12.2557 17.827 12.3514 17.5973C12.4471 17.3648 12.4949 17.0914 12.4949 16.777V16.7688C12.4949 16.4516 12.4457 16.1781 12.3473 15.9484C12.2516 15.7188 12.1135 15.5424 11.933 15.4193C11.7553 15.2936 11.5434 15.2307 11.2973 15.2307C11.0512 15.2307 10.8379 15.2936 10.6574 15.4193C10.4797 15.5424 10.343 15.7188 10.2473 15.9484C10.1543 16.1754 10.1078 16.4488 10.1078 16.7688V16.777C10.1078 17.0941 10.1543 17.3676 10.2473 17.5973C10.343 17.827 10.4797 18.0033 10.6574 18.1264C10.8379 18.2494 11.0512 18.3109 11.2973 18.3109Z" fill="#FF99F9"/>
</svg>
