<svg width="28" height="28" viewBox="0 0 28 28" fill="none" xmlns="http://www.w3.org/2000/svg">
<rect width="28" height="28" rx="7" fill="#0057FE"/>
<path d="M16.6211 9.3229H20.9072V10.3627H16.6211V9.3229ZM12.3264 13.4372C13.2738 12.9838 13.7701 12.2942 13.7701 11.2286C13.7701 9.12095 12.2018 8.60962 10.3906 8.60962H5.40625V19.1885H10.5303C12.451 19.1885 14.2535 18.2647 14.2535 16.1163C14.2535 14.7885 13.6262 13.8067 12.3264 13.4372ZM7.73086 10.4143H9.91152C10.7516 10.4143 11.5057 10.6485 11.5057 11.6239C11.5057 12.5219 10.9191 12.8829 10.0877 12.8829H7.73086V10.4143ZM10.2123 17.3924H7.72871V14.4791H10.2617C11.2844 14.4791 11.9311 14.9067 11.9311 15.9895C11.9311 17.0551 11.1598 17.3924 10.2123 17.3924ZM22.583 15.4696C22.583 13.203 21.2574 11.3145 18.8598 11.3145C16.5287 11.3145 14.9432 13.0698 14.9432 15.3708C14.9432 17.7555 16.4449 19.3926 18.8598 19.3926C20.6881 19.3926 21.8719 18.5698 22.4412 16.8145H20.5871C20.3852 17.4698 19.5645 17.8135 18.9264 17.8135C17.6932 17.8135 17.0486 17.0917 17.0486 15.8649H22.568C22.5744 15.7381 22.583 15.6049 22.583 15.4696ZM17.0486 14.5372C17.1152 13.5295 17.7877 12.9 18.7932 12.9C19.8502 12.9 20.3787 13.5209 20.4711 14.5372H17.0486Z" fill="white"/>
</svg>
