<svg width="16" height="16" viewBox="0 0 16 16" fill="none" xmlns="http://www.w3.org/2000/svg">
<path d="M12.1666 10.0993C8.18136 10.0993 5.70285 7.71121 5.70285 3.84654C5.70285 2.76171 5.88365 1.78236 6.16239 1.24748C6.29046 0.99888 6.32812 0.84821 6.32812 0.659873C6.32812 0.343467 6.06445 0.0119934 5.67271 0.0119934C5.57478 0.0119934 5.40151 0.0421273 5.16044 0.132529C2.33538 1.28515 0.369141 4.23074 0.369141 7.41741C0.369141 11.9978 3.70647 15.3426 8.28683 15.3426C11.5564 15.3426 14.2533 13.5949 15.4888 10.7623C15.5943 10.5287 15.6244 10.3329 15.6244 10.2123C15.6244 9.82812 15.3306 9.58705 15.0218 9.58705C14.8636 9.58705 14.7204 9.60965 14.502 9.70759C13.9219 9.94866 13.0329 10.0993 12.1666 10.0993ZM1.8457 7.37221C1.8457 5.24776 2.90792 3.19112 4.64062 2.02343C4.43722 2.62611 4.33175 3.29659 4.33175 4.02734C4.33175 8.66043 7.17941 11.4478 11.918 11.4478C12.5508 11.4478 13.1007 11.3725 13.6205 11.1917C12.5206 12.8641 10.5092 13.8736 8.33203 13.8736C4.58036 13.8736 1.8457 11.1314 1.8457 7.37221Z" fill="#EBEBF5" fill-opacity="0.3"/>
</svg>
