<svg width="16" height="16" viewBox="0 0 16 16" fill="none" xmlns="http://www.w3.org/2000/svg">
<path d="M12.1666 10.0993C8.18136 10.0993 5.70285 7.71118 5.70285 3.84651C5.70285 2.76168 5.88365 1.78233 6.16239 1.24745C6.29046 0.998849 6.32812 0.848179 6.32812 0.659842C6.32812 0.343436 6.06445 0.0119629 5.67271 0.0119629C5.57478 0.0119629 5.40151 0.0420968 5.16044 0.132499C2.33538 1.28512 0.369141 4.23071 0.369141 7.41738C0.369141 11.9977 3.70647 15.3426 8.28683 15.3426C11.5564 15.3426 14.2533 13.5948 15.4888 10.7622C15.5943 10.5287 15.6244 10.3328 15.6244 10.2123C15.6244 9.82809 15.3306 9.58702 15.0218 9.58702C14.8636 9.58702 14.7204 9.60962 14.502 9.70755C13.9219 9.94863 13.0329 10.0993 12.1666 10.0993ZM1.8457 7.37218C1.8457 5.24773 2.90792 3.19109 4.64062 2.0234C4.43722 2.62608 4.33175 3.29656 4.33175 4.02731C4.33175 8.6604 7.17941 11.4478 11.918 11.4478C12.5508 11.4478 13.1007 11.3725 13.6205 11.1917C12.5206 12.8641 10.5092 13.8736 8.33203 13.8736C4.58036 13.8736 1.8457 11.1314 1.8457 7.37218Z" fill="#3C3C43" fill-opacity="0.3"/>
</svg>
