<svg width="16" height="16" viewBox="0 0 16 16" fill="none" xmlns="http://www.w3.org/2000/svg">
<path d="M12.144 10.2048C8.15876 10.2048 5.62751 7.73382 5.62751 3.77121C5.62751 2.90486 5.83092 1.75223 6.10212 1.14202C6.19252 0.94615 6.21512 0.810547 6.21512 0.705078C6.21512 0.464007 6.04185 0.230469 5.73298 0.230469C5.61998 0.230469 5.43917 0.260603 5.25084 0.328404C2.44838 1.45089 0.580078 4.41155 0.580078 7.55301C0.580078 11.9752 3.92494 15.1468 8.33203 15.1468C11.5262 15.1468 14.3211 13.2182 15.308 10.702C15.3909 10.5061 15.4135 10.3103 15.4135 10.2048C15.4135 9.91099 15.1875 9.71512 14.9464 9.71512C14.8184 9.71512 14.6978 9.74526 14.5246 9.82059C13.9595 10.0165 13.048 10.2048 12.144 10.2048Z" fill="white"/>
</svg>
