<svg width="18" height="18" viewBox="0 0 18 18" fill="none" xmlns="http://www.w3.org/2000/svg">
<path d="M3.30887 13.4938C2.49526 13.4938 1.88002 13.2879 1.46317 12.876C1.04632 12.4642 0.837891 11.854 0.837891 11.0454V3.36879C0.837891 2.5602 1.04632 1.94999 1.46317 1.53816C1.88002 1.12633 2.49526 0.92041 3.30887 0.92041H10.9403C11.7539 0.92041 12.3691 1.12884 12.786 1.54569C13.2028 1.95752 13.4113 2.56522 13.4113 3.36879V5.13916H11.9272V3.49686C11.9272 3.13023 11.8343 2.85652 11.6484 2.67571C11.4626 2.48989 11.1964 2.39697 10.8499 2.39697H3.39927C3.04771 2.39697 2.77902 2.48989 2.59319 2.67571C2.41239 2.85652 2.32199 3.13023 2.32199 3.49686V10.9173C2.32199 11.284 2.41239 11.5602 2.59319 11.746C2.77902 11.9268 3.04771 12.0172 3.39927 12.0172H5.32031V13.4938H3.30887ZM7.06055 17.0797C6.24693 17.0797 5.6317 16.8738 5.21484 16.462C4.79799 16.0502 4.58956 15.4399 4.58956 14.6313V6.9472C4.58956 6.14362 4.79799 5.53592 5.21484 5.12409C5.6317 4.70724 6.24693 4.49881 7.06055 4.49881H14.692C15.5056 4.49881 16.1208 4.70724 16.5377 5.12409C16.9545 5.54095 17.1629 6.14865 17.1629 6.9472V14.6313C17.1629 15.4349 16.9545 16.0426 16.5377 16.4545C16.1208 16.8713 15.5056 17.0797 14.692 17.0797H7.06055ZM7.15095 15.6032H14.6016C14.9481 15.6032 15.2143 15.5103 15.4001 15.3244C15.5859 15.1436 15.6788 14.8699 15.6788 14.5033V7.0828C15.6788 6.71617 15.5859 6.44245 15.4001 6.26165C15.2143 6.07582 14.9481 5.98291 14.6016 5.98291H7.15095C6.79939 5.98291 6.53069 6.07582 6.34487 6.26165C6.15904 6.44245 6.06613 6.71617 6.06613 7.0828V14.5033C6.06613 14.8699 6.15904 15.1436 6.34487 15.3244C6.53069 15.5103 6.79939 15.6032 7.15095 15.6032Z" fill="white"/>
</svg>
