<svg width="18" height="18" viewBox="0 0 18 18" fill="none" xmlns="http://www.w3.org/2000/svg">
<path d="M9.76758 1.01964C9.76758 0.605294 9.4135 0.251221 8.99916 0.251221C8.58482 0.251221 8.23828 0.605294 8.23828 1.01964V2.54893C8.23828 2.96327 8.58482 3.30981 8.99916 3.30981C9.4135 3.30981 9.76758 2.96327 9.76758 2.54893V1.01964ZM12.781 3.82209C12.4872 4.1159 12.4872 4.60557 12.7885 4.89938C13.0748 5.19318 13.572 5.19318 13.8658 4.89185L14.9506 3.80702C15.2444 3.52075 15.2444 3.01601 14.9506 2.7222C14.6568 2.43593 14.1671 2.43593 13.8733 2.72974L12.781 3.82209ZM4.13253 4.89185C4.41881 5.19318 4.91602 5.19318 5.20982 4.89938C5.50363 4.61311 5.50363 4.10836 5.21735 3.82209L4.13253 2.72974C3.84626 2.44346 3.34905 2.43593 3.05525 2.7222C2.76144 3.01601 2.76144 3.52075 3.04771 3.79949L4.13253 4.89185ZM8.99916 4.70351C6.82952 4.70351 5.02902 6.49648 5.02902 8.67365C5.02902 10.8508 6.82952 12.6438 8.99916 12.6438C11.1688 12.6438 12.9618 10.8508 12.9618 8.67365C12.9618 6.49648 11.1688 4.70351 8.99916 4.70351ZM16.6456 9.44207C17.06 9.44207 17.4065 9.088 17.4065 8.67365C17.4065 8.25931 17.06 7.91277 16.6456 7.91277H15.1163C14.702 7.91277 14.3555 8.25931 14.3555 8.67365C14.3555 9.088 14.702 9.44207 15.1163 9.44207H16.6456ZM1.36021 7.91277C0.938337 7.91277 0.591797 8.25931 0.591797 8.67365C0.591797 9.088 0.938337 9.44207 1.36021 9.44207H2.88198C3.29632 9.44207 3.65039 9.088 3.65039 8.67365C3.65039 8.25931 3.29632 7.91277 2.88198 7.91277H1.36021ZM13.8583 12.4555C13.5645 12.1617 13.0748 12.1692 12.781 12.463C12.4872 12.7493 12.4872 13.2389 12.7885 13.5403L13.8809 14.6251C14.1671 14.9189 14.6643 14.9114 14.9581 14.6176C15.2444 14.3238 15.2444 13.8341 14.9506 13.5403L13.8583 12.4555ZM3.04771 13.5328C2.75391 13.8266 2.74637 14.3238 3.03264 14.61C3.32645 14.9038 3.83119 14.9114 4.11747 14.6251L5.20982 13.5403C5.50363 13.2465 5.50363 12.7493 5.21735 12.463C4.92355 12.1692 4.42634 12.1692 4.13253 12.4555L3.04771 13.5328ZM9.76758 14.7984C9.76758 14.384 9.4135 14.0375 8.99916 14.0375C8.58482 14.0375 8.23828 14.384 8.23828 14.7984V16.3277C8.23828 16.742 8.58482 17.0961 8.99916 17.0961C9.4135 17.0961 9.76758 16.742 9.76758 16.3277V14.7984Z" fill="black"/>
</svg>
