<svg width="18" height="18" viewBox="0 0 18 18" fill="none" xmlns="http://www.w3.org/2000/svg">
<path d="M9.76758 1.01953C9.76758 0.605188 9.4135 0.251114 8.99916 0.251114C8.58482 0.251114 8.23828 0.605188 8.23828 1.01953V2.54883C8.23828 2.96317 8.58482 3.30971 8.99916 3.30971C9.4135 3.30971 9.76758 2.96317 9.76758 2.54883V1.01953ZM12.781 3.82198C12.4872 4.11579 12.4872 4.60547 12.7885 4.89927C13.0748 5.19308 13.572 5.19308 13.8658 4.89174L14.9506 3.80692C15.2444 3.52065 15.2444 3.0159 14.9506 2.7221C14.6568 2.43582 14.1671 2.43582 13.8733 2.72963L12.781 3.82198ZM4.13253 4.89174C4.41881 5.19308 4.91602 5.19308 5.20982 4.89927C5.50363 4.613 5.50363 4.10826 5.21735 3.82198L4.13253 2.72963C3.84626 2.44336 3.34905 2.43582 3.05525 2.7221C2.76144 3.0159 2.76144 3.52065 3.04771 3.79938L4.13253 4.89174ZM8.99916 4.7034C6.82952 4.7034 5.02902 6.49637 5.02902 8.67355C5.02902 10.8507 6.82952 12.6437 8.99916 12.6437C11.1688 12.6437 12.9618 10.8507 12.9618 8.67355C12.9618 6.49637 11.1688 4.7034 8.99916 4.7034ZM16.6456 9.44196C17.06 9.44196 17.4065 9.08789 17.4065 8.67355C17.4065 8.25921 17.06 7.91267 16.6456 7.91267H15.1163C14.702 7.91267 14.3555 8.25921 14.3555 8.67355C14.3555 9.08789 14.702 9.44196 15.1163 9.44196H16.6456ZM1.36021 7.91267C0.938337 7.91267 0.591797 8.25921 0.591797 8.67355C0.591797 9.08789 0.938337 9.44196 1.36021 9.44196H2.88198C3.29632 9.44196 3.65039 9.08789 3.65039 8.67355C3.65039 8.25921 3.29632 7.91267 2.88198 7.91267H1.36021ZM13.8583 12.4554C13.5645 12.1615 13.0748 12.1691 12.781 12.4629C12.4872 12.7492 12.4872 13.2388 12.7885 13.5402L13.8809 14.625C14.1671 14.9188 14.6643 14.9113 14.9581 14.6175C15.2444 14.3237 15.2444 13.834 14.9506 13.5402L13.8583 12.4554ZM3.04771 13.5326C2.75391 13.8264 2.74637 14.3237 3.03264 14.6099C3.32645 14.9037 3.83119 14.9113 4.11747 14.625L5.20982 13.5402C5.50363 13.2464 5.50363 12.7492 5.21735 12.4629C4.92355 12.1691 4.42634 12.1691 4.13253 12.4554L3.04771 13.5326ZM9.76758 14.7983C9.76758 14.3839 9.4135 14.0374 8.99916 14.0374C8.58482 14.0374 8.23828 14.3839 8.23828 14.7983V16.3276C8.23828 16.7419 8.58482 17.096 8.99916 17.096C9.4135 17.096 9.76758 16.7419 9.76758 16.3276V14.7983Z" fill="white"/>
</svg>
