<svg width="244" height="244" viewBox="0 0 244 244" fill="none" xmlns="http://www.w3.org/2000/svg">
<path d="M202.346 128.934C199.878 124.377 196.175 120.579 191.143 117.636C186.206 114.598 180.035 112.32 172.63 110.706L153.357 106.623C148.325 105.579 144.432 104.344 141.584 103.015C138.736 101.591 136.742 99.9772 135.508 98.1733C134.368 96.2744 133.704 93.9958 133.704 91.3375C133.704 87.9196 134.558 85.0713 136.362 82.6978C138.166 80.3242 140.729 78.5203 144.147 77.2861C147.565 76.0519 151.553 75.3873 156.3 75.3873C161.427 75.3873 165.794 76.1468 169.402 77.5709C173.009 78.9951 175.858 81.1787 177.852 83.932C179.845 86.7803 181.08 90.1982 181.459 94.2807H201.682C201.112 86.6853 199.023 80.2293 195.321 74.9126C191.713 69.5958 186.586 65.6083 180.035 62.9499C173.484 60.1966 165.794 58.8674 156.68 58.8674C147.185 58.8674 139.115 60.2916 132.564 63.1398C126.013 65.9881 121.171 69.9756 117.943 75.1025C117.848 75.1974 117.848 75.2923 117.753 75.3873C114.81 70.3554 110.348 66.3678 104.652 63.7095C98.6702 60.8612 91.3597 59.4371 82.9099 59.4371C74.8398 59.4371 67.8142 60.7663 61.8328 63.4246C55.8515 66.083 51.1994 69.7857 47.9714 74.5328C44.7433 79.2799 43.1293 84.6916 43.1293 90.8628C43.1293 94.9453 43.8889 98.648 45.4079 102.066C46.927 105.484 49.3005 108.427 52.6235 110.99C55.1869 112.984 58.225 114.598 61.7379 115.737C57.1807 116.592 53.0982 118.111 49.7752 120.105C45.5978 122.668 42.4647 125.896 40.471 129.979C38.3822 134.061 37.3379 138.713 37.3379 144.03C37.3379 151.246 39.1418 157.607 42.8445 163.113C46.5472 168.62 51.769 172.987 58.5099 176.025C65.2507 179.064 73.2258 180.583 82.2453 180.583C91.5496 180.583 99.6196 178.969 106.36 175.741C111.392 173.272 115.57 170.044 118.988 166.057C122.69 170.424 127.343 173.937 133.134 176.31C140.255 179.348 148.799 180.867 158.863 180.867C169.307 180.867 178.136 179.348 185.162 176.215C192.283 173.082 197.504 168.81 200.922 163.398C204.34 157.987 206.049 151.72 206.049 144.695C206.049 138.808 204.815 133.492 202.346 128.934ZM182.409 155.613C180.51 158.271 177.662 160.36 173.864 161.784C170.066 163.208 165.319 163.873 159.623 163.873C153.641 163.873 148.515 163.018 144.337 161.404C140.16 159.695 136.932 157.132 134.558 153.619C132.185 150.106 130.76 145.549 130.381 140.043H128.292H108.354C108.069 145.264 106.93 149.632 104.936 153.144C102.943 156.657 99.9994 159.221 96.2966 161.025C92.5939 162.734 87.9418 163.588 82.5301 163.588C77.1184 163.588 72.6562 162.734 68.9535 161.215C65.2507 159.601 62.4974 157.227 60.6935 154.284C58.7947 151.246 57.9402 147.733 57.9402 143.65C57.9402 139.758 58.7947 136.34 60.4087 133.681C62.1177 130.928 64.5861 128.839 67.9091 127.415C71.2321 125.991 75.4095 125.232 80.4414 125.232H91.6445V109.376H82.9099C78.4476 109.376 74.7449 108.712 71.7068 107.478C68.6686 106.148 66.485 104.344 64.9659 101.876C63.4468 99.4075 62.7823 96.4643 62.7823 92.9515C62.7823 89.2488 63.5418 86.2106 65.1558 83.6472C66.6749 81.1787 69.0484 79.2799 72.0865 77.9507C75.1247 76.6215 78.9223 76.0519 83.3846 76.0519C87.9418 76.0519 91.6445 76.7165 94.5877 78.1406C97.5309 79.4698 99.8095 81.6534 101.329 84.6916C102.848 87.6347 103.797 91.5274 104.082 96.3694H113.196C113.576 101.022 114.905 105.009 117.089 108.427C119.842 112.604 123.545 115.927 128.292 118.396C133.039 120.864 138.831 122.858 145.476 124.282L164.085 128.27C169.117 129.314 173.104 130.643 176.143 132.162C179.181 133.681 181.459 135.58 182.788 137.859C184.213 140.043 184.877 142.796 184.877 145.929C185.257 149.727 184.308 152.955 182.409 155.613Z" fill="black"/>
<path d="M215.838 57.7594C218.961 57.7594 221.592 58.8005 223.732 60.8825C225.843 62.9646 226.899 65.5093 226.899 68.5168C226.899 71.4953 225.843 74.0256 223.732 76.1076C221.592 78.1897 218.961 79.2307 215.838 79.2307C212.744 79.2307 210.127 78.1897 207.987 76.1076C205.847 74.0256 204.777 71.4953 204.777 68.5168C204.777 65.5093 205.847 62.9646 207.987 60.8825C210.127 58.8005 212.744 57.7594 215.838 57.7594ZM215.838 76.8884C218.325 76.8884 220.378 76.0932 221.997 74.5027C223.617 72.8833 224.426 70.888 224.426 68.5168C224.426 66.1166 223.617 64.1068 221.997 62.4874C220.32 60.8681 218.267 60.0584 215.838 60.0584C213.438 60.0584 211.399 60.8681 209.722 62.4874C208.073 64.0779 207.249 66.0877 207.249 68.5168C207.249 70.888 208.073 72.8688 209.722 74.4593C211.399 76.0787 213.438 76.8884 215.838 76.8884ZM220.306 70.9025L220.436 72.4206C220.494 73.1146 220.653 73.6207 220.913 73.9388H218.267C218.064 73.6496 217.934 73.1436 217.877 72.4206L217.79 71.2495C217.732 70.7 217.602 70.3241 217.399 70.1217C217.226 69.9193 216.893 69.818 216.402 69.818H214.059V73.9388H211.544V62.8345H216.575C217.819 62.8345 218.787 63.1236 219.481 63.702C220.204 64.2514 220.566 65.0322 220.566 66.0443C220.566 67.2878 220.045 68.1408 219.004 68.6035C219.843 69.0084 220.277 69.7747 220.306 70.9025ZM214.059 65.0033V67.736H216.445C217.457 67.736 217.963 67.2733 217.963 66.3479C217.963 65.4515 217.428 65.0033 216.358 65.0033H214.059Z" fill="black"/>
</svg>
