<svg width="20" height="20" viewBox="0 0 20 20" fill="none" xmlns="http://www.w3.org/2000/svg">
<path d="M16.5178 10.559C16.3166 10.1833 16.0132 9.86895 15.6092 9.61432C15.2053 9.35968 14.6992 9.16792 14.0909 9.03745L12.4121 8.67593C12.0632 8.60206 11.7881 8.51561 11.5838 8.41815C11.3826 8.31756 11.238 8.19967 11.1515 8.06606C11.0666 7.93246 11.0242 7.77213 11.0242 7.58665C11.0242 7.34459 11.0902 7.14025 11.2223 6.97364C11.3543 6.80545 11.5413 6.67971 11.785 6.59483C12.0302 6.50838 12.3241 6.46436 12.6668 6.46436C13.0393 6.46436 13.3568 6.51623 13.6162 6.6184C13.8755 6.719 14.0783 6.8699 14.2229 7.07109C14.3706 7.27071 14.4602 7.51749 14.4917 7.81143H16.4533C16.4109 7.17955 16.2395 6.6467 15.9378 6.21287C15.636 5.77905 15.2131 5.45368 14.6709 5.23362C14.1239 5.01199 13.47 4.90039 12.7061 4.90039C11.8903 4.90039 11.2081 5.01985 10.658 5.25877C10.2037 5.45682 9.84533 5.71932 9.58126 6.04626C9.33134 5.73975 9.01383 5.49454 8.62873 5.31378C8.1226 5.07801 7.50802 4.96012 6.78497 4.96012C6.09494 4.96012 5.49764 5.07015 4.99466 5.29178C4.4901 5.51026 4.10343 5.8152 3.83779 6.20344C3.57215 6.59168 3.43854 7.03651 3.43854 7.53478C3.43854 7.87744 3.50613 8.19181 3.63974 8.47945C3.77334 8.76553 3.98082 9.01231 4.26061 9.21979C4.46495 9.37068 4.70701 9.49014 4.9868 9.57817C4.62999 9.64575 4.31877 9.75893 4.04998 9.92083C3.70418 10.1267 3.44169 10.3971 3.26564 10.7319C3.08802 11.0667 3 11.4518 3 11.8856C3 12.4751 3.1509 12.9985 3.45269 13.4543C3.75448 13.9086 4.18831 14.2622 4.75259 14.5169C5.31845 14.7715 5.98334 14.8988 6.74725 14.8988C7.53631 14.8988 8.21377 14.7636 8.77806 14.4933C9.13015 14.3251 9.43351 14.1098 9.68501 13.8504C9.96479 14.1302 10.3027 14.355 10.7004 14.5247C11.2946 14.7746 12.0082 14.9004 12.8428 14.9004C13.7073 14.9004 14.4367 14.7746 15.0324 14.5216C15.6297 14.2685 16.0761 13.9164 16.3732 13.4622C16.6734 13.0063 16.8227 12.4766 16.8227 11.873C16.8227 11.3732 16.7205 10.9347 16.5178 10.559ZM14.5876 12.6778C14.4492 12.868 14.2402 13.0142 13.9604 13.1164C13.6806 13.217 13.3348 13.2673 12.9214 13.2673C12.475 13.2673 12.0962 13.2075 11.785 13.0865C11.4769 12.9639 11.2364 12.7737 11.0635 12.5159C10.8922 12.2597 10.7884 11.9312 10.7554 11.5304H10.5998V11.5288H8.73247C8.71204 11.9312 8.62716 12.2644 8.47784 12.5316C8.32537 12.7973 8.11003 12.9969 7.83024 13.1289C7.55046 13.261 7.20622 13.327 6.79755 13.327C6.39987 13.327 6.0635 13.2673 5.78843 13.1462C5.51336 13.0252 5.30588 12.8539 5.16441 12.6307C5.02295 12.4075 4.95379 12.1418 4.95379 11.8322C4.95379 11.532 5.01981 11.2805 5.15184 11.0746C5.28387 10.8671 5.47878 10.7099 5.73813 10.6046C5.99591 10.4977 6.31342 10.4442 6.69381 10.4442H7.54574V9.02016H6.81169C6.47218 9.02016 6.18768 8.97144 5.95976 8.87556C5.73185 8.77653 5.56209 8.63507 5.45049 8.44959C5.33574 8.26254 5.27916 8.03463 5.27916 7.76899C5.27916 7.49234 5.33889 7.25814 5.45677 7.06795C5.57466 6.87776 5.75071 6.73472 5.98334 6.63884C6.21597 6.54296 6.50362 6.49423 6.8447 6.49423C7.18265 6.49423 7.46086 6.54453 7.68249 6.64513C7.90412 6.74572 8.07545 6.90762 8.19491 7.13082C8.31594 7.35245 8.38824 7.64481 8.41339 8.00948H9.03898C9.07199 8.40243 9.17573 8.74195 9.35335 9.02645C9.57183 9.3754 9.8752 9.65519 10.2619 9.86424C10.6485 10.0717 11.1154 10.2352 11.6624 10.3531L13.2986 10.7052C13.6555 10.7838 13.9431 10.8781 14.16 10.9897C14.3785 11.0997 14.5388 11.2349 14.6394 11.3952C14.7416 11.5555 14.7935 11.752 14.7935 11.9815C14.795 12.255 14.7259 12.4861 14.5876 12.6778Z" fill="#3C3C43" fill-opacity="0.6"/>
<path d="M17.4211 4.96438C17.6771 4.96438 17.8928 5.04971 18.0682 5.22037C18.2412 5.39103 18.3277 5.59961 18.3277 5.84612C18.3277 6.09026 18.2412 6.29766 18.0682 6.46833C17.8928 6.63899 17.6771 6.72432 17.4211 6.72432C17.1674 6.72432 16.9529 6.63899 16.7775 6.46833C16.6021 6.29766 16.5144 6.09026 16.5144 5.84612C16.5144 5.59961 16.6021 5.39103 16.7775 5.22037C16.9529 5.04971 17.1674 4.96438 17.4211 4.96438ZM17.4211 6.53232C17.6249 6.53232 17.7932 6.46714 17.9259 6.33677C18.0587 6.20404 18.125 6.04049 18.125 5.84612C18.125 5.64939 18.0587 5.48465 17.9259 5.35192C17.7885 5.21918 17.6202 5.15281 17.4211 5.15281C17.2243 5.15281 17.0572 5.21918 16.9198 5.35192C16.7846 5.48228 16.7171 5.64702 16.7171 5.84612C16.7171 6.04049 16.7846 6.20285 16.9198 6.33322C17.0572 6.46596 17.2243 6.53232 17.4211 6.53232ZM17.7873 6.04167L17.7979 6.16611C17.8027 6.223 17.8157 6.26448 17.8371 6.29055H17.6202C17.6036 6.26685 17.5929 6.22537 17.5882 6.16611L17.5811 6.07012C17.5763 6.02508 17.5657 5.99427 17.5491 5.97768C17.5348 5.96108 17.5076 5.95279 17.4673 5.95279H17.2753V6.29055H17.0691V5.38036H17.4815C17.5834 5.38036 17.6628 5.40406 17.7197 5.45147C17.779 5.49651 17.8086 5.5605 17.8086 5.64346C17.8086 5.74539 17.7659 5.81531 17.6806 5.85323C17.7494 5.88642 17.7849 5.94923 17.7873 6.04167ZM17.2753 5.55813V5.78213H17.4708C17.5538 5.78213 17.5953 5.7442 17.5953 5.66835C17.5953 5.59487 17.5514 5.55813 17.4637 5.55813H17.2753Z" fill="#3C3C43" fill-opacity="0.6"/>
</svg>
